<svg width="576" height="512" viewBox="0 0 576 512" fill="none" xmlns="http://www.w3.org/2000/svg">
<path d="M528 160V416C528 424.8 520.8 432 512 432H320C320 387.8 284.2 352 240 352H176C131.8 352 96 387.8 96 432H64C55.2 432 48 424.8 48 416V160H528ZM64 32C28.7 32 0 60.7 0 96V416C0 451.3 28.7 480 64 480H512C547.3 480 576 451.3 576 416V96C576 60.7 547.3 32 512 32H64ZM272 256C272 239.026 265.257 222.747 253.255 210.745C241.253 198.743 224.974 192 208 192C191.026 192 174.747 198.743 162.745 210.745C150.743 222.747 144 239.026 144 256C144 272.974 150.743 289.252 162.745 301.255C174.747 313.257 191.026 320 208 320C224.974 320 241.253 313.257 253.255 301.255C265.257 289.252 272 272.974 272 256ZM376 208C362.7 208 352 218.7 352 232C352 245.3 362.7 256 376 256H456C469.3 256 480 245.3 480 232C480 218.7 469.3 208 456 208H376ZM376 304C362.7 304 352 314.7 352 328C352 341.3 362.7 352 376 352H456C469.3 352 480 341.3 480 328C480 314.7 469.3 304 456 304H376Z" fill="#1A3467"/>
</svg>
