<svg width="448" height="512" viewBox="0 0 448 512" fill="none" xmlns="http://www.w3.org/2000/svg">
<g clip-path="url(#clip0_11_11)">
<path d="M144 144V192H304V144C304 99.8 268.2 64 224 64C179.8 64 144 99.8 144 144ZM80 192V144C80 64.5 144.5 0 224 0C303.5 0 368 64.5 368 144V192H384C419.3 192 448 220.7 448 256V448C448 483.3 419.3 512 384 512H64C28.7 512 0 483.3 0 448V256C0 220.7 28.7 192 64 192H80Z" fill="#1A3467"/>
</g>
<defs>
<clipPath id="clip0_11_11">
<rect width="448" height="512" fill="white"/>
</clipPath>
</defs>
</svg>
