 <!DOCTYPE svg PUBLIC "-//W3C//DTD SVG 1.1//EN" "http://www.w3.org/Graphics/SVG/1.1/DTD/svg11.dtd">
<svg id="e30221f5-1cd5-443e-bce8-9829feb3710c" data-name="Layer 1" xmlns="http://www.w3.org/2000/svg" xmlns:xlink="http://www.w3.org/1999/xlink" width="865.76" height="682.89" viewBox="0 0 865.76 682.89">
<defs>
<clipPath id="aaca2649-06eb-4182-813a-8915febfcf07">
<path id="f4123cd7-fa33-4e47-847c-8c52e6a49149" data-name="SVGID" d="M307.35,496.87l54.3-.49a48,48,0,0,0,38.06-8.82L493,464.82l1.19-.52-6.85-13.07-36.86,1.28-126,30Z" fill="#bcbec0"/>
</clipPath>
<style xmlns="http://www.w3.org/1999/xhtml">*, ::after, ::before { box-sizing: border-box; }
img, svg { vertical-align: middle; }
</style>
<style xmlns="http://www.w3.org/1999/xhtml">*, body, html { -webkit-font-smoothing: antialiased; }
img, svg { max-width: 100%; }
</style>
</defs>
<g id="b2d7e655-9b97-4ad1-a619-6c6d1adc8c40" data-name="freepik--background-simple--inject-1">
<path d="M853,509.14c18.29-137.44-70.45-320.08-162.3-395.5C524.79-22.53,386.91,3.8,279.66,52.55S157.21,264.18,83.15,337.85-33,510.59,79.34,609.25,282.4,657.76,399.76,651.5s273.2,43,357.45.17C816.05,621.78,845,570,853,509.14Z" fill="#0071f2" data-primary="true"/>
<path d="M853,509.14c18.29-137.44-70.45-320.08-162.3-395.5C524.79-22.53,386.91,3.8,279.66,52.55S157.21,264.18,83.15,337.85-33,510.59,79.34,609.25,282.4,657.76,399.76,651.5s273.2,43,357.45.17C816.05,621.78,845,570,853,509.14Z" fill="#fff" opacity="0.8" style="isolation:isolate"/>
</g>
<g id="b0203492-cd55-403e-8d16-a1c91b82cdb9" data-name="freepik--Floor--inject-1">
<path d="M20.76,532.35C31.23,557.69,50,583.49,79.34,609.21c112.34,98.63,203.06,48.51,320.42,42.25s273.2,43,357.45.17c51.18-26,79.77-68.67,91.66-119.32Z" fill="#0071f2" data-primary="true"/>
<path d="M20.76,532.35C31.23,557.69,50,583.49,79.34,609.21c112.34,98.63,203.06,48.51,320.42,42.25s273.2,43,357.45.17c51.18-26,79.77-68.67,91.66-119.32Z" fill="#fff" opacity="0.5" style="isolation:isolate"/>
</g>
<path d="M129.93,281.2l91.12-1.55L344.19,430.84l-60.38,42.8-22.23,6.53s-1.8,1.27-4.37-3.23Z" fill="#bcbec0"/>
<rect x="122.73" y="262.99" width="10.53" height="25.63" fill="#a7a9ac"/>
<path d="M106.72,209V267.1H220.13a26,26,0,0,0,26.05-27.21c-.76-14.37-4.9-29.29-18.64-30.45Z" fill="#d1d3d4"/>
<path d="M564.86,486.72A2.51,2.51,0,0,1,568.2,488c1.46,3.65,2.08,12.48-13,23.64,0,0-15.7,13.27-28.55,18.59a.29.29,0,0,1-.34-.44C529.91,524.5,549.44,492.64,564.86,486.72Z" fill="#2f2e41" data-secondary="true"/>
<path d="M552.89,496.65s5.57,31.28,14.14,39.42c0,0-21.43,9.86-36-.85l-1.71-9.86S545.17,504.36,552.89,496.65Z" fill="#f9b499"/>
<path d="M586.84,412.83l7.54,8.62s9.43-3.23,16.7-25.32L605.7,391A40.94,40.94,0,0,1,586.84,412.83Z" fill="#f9b499"/>
<path d="M262.08,483.56c-.63-1.09,95.44-27.93,95.44-27.93l7.09,15.42-71.69,18.76S269.58,496.48,262.08,483.56Z" fill="none" stroke="#ed1c24" stroke-miterlimit="10"/>
<path d="M467.93,481.07l47.89,102a5.64,5.64,0,0,0,7.11,2.87h0a5.61,5.61,0,0,0,3.4-6.84L493,464.82l-93.28,22.74s-15.78,13.93-38.06,8.82c0,0,7,13.46,48.73-.93C411.77,495.45,467.93,481.07,467.93,481.07Z" fill="#a7a9ac"/>
<polygon points="450.47 452.51 506.61 451.23 464.83 384.38 454.63 391.65 396.69 392.09 450.47 452.51" fill="#bcbec0"/>
<path id="b63b20a7-3034-4057-a968-d47d5b5e68df" data-name="SVGID" d="M307.35,496.87l54.3-.49a48,48,0,0,0,38.06-8.82L493,464.82l1.19-.52-6.85-13.07-36.86,1.28-126,30Z" fill="#bcbec0"/>
<g clip-path="url(#aaca2649-06eb-4182-813a-8915febfcf07)">
<polygon points="343.53 496.88 487.32 451.23 450.47 452.51 275.88 496.55 343.53 496.88" opacity="0.2"/>
</g>
<path d="M422.69,391.65H447.3a12.51,12.51,0,0,1,10.92,6.41C471,420.9,514.05,498.69,525.66,530.14a.24.24,0,0,0,.43.05c3-4.39,29.76-43.45,40.48-42.76a.54.54,0,0,0,.43-.88c-3.42-4.41-14.43-21.08-28.67-67.72,0,0-18.55-47.89-29.34-65.15,0,0-19.85-45.31-37.54-42.72C471.45,311,421,335.55,422.69,391.65Z" fill="#2f2e41" data-secondary="true"/>
<path d="M422.69,391.65H447.3a12.51,12.51,0,0,1,10.92,6.41C471,420.9,514.05,498.69,525.66,530.14a.24.24,0,0,0,.43.05c3-4.39,29.76-43.45,40.48-42.76a.54.54,0,0,0,.43-.88c-3.42-4.41-14.43-21.08-28.67-67.72,0,0-18.55-47.89-29.34-65.15,0,0-19.85-45.31-37.54-42.72C471.45,311,421,335.55,422.69,391.65Z" opacity="0.2"/>
<path d="M113.12,288.2,257.66,485.52s30.43-23.77,21.87-50.87L137.69,284.88a11.67,11.67,0,0,0-7.76-3.68C125.17,280.92,118.07,281.79,113.12,288.2Z" fill="#d1d3d4"/>
<path d="M106.72,209s16.93,1.83,20.13,15.56l1.38,21.05s1.83,18.77-21.51,21.51Z" fill="#bcbec0"/>
<polygon points="361.34 253.26 372.91 256.25 369.91 260.54 360.49 256.25 361.34 253.26" fill="#f9b499"/>
<path d="M330.13,370c13.29-23.57,1.22-88.07,1.22-88.07l22.71,6,8.14-36.86C337.77,238.69,298,229.79,298,229.79l-40.82-2.25c-62.56,7.72-55.7,55.28-55.7,55.28,2.57,78.42,54,141.41,54,141.41A201,201,0,0,1,285.33,409S322,393.18,330.13,370Z" fill="#0071f2" data-primary="true"/>
<path d="M255.5,424.23s4.71,3,12,.43l-3.86-6Z" fill="#0071f2" data-primary="true"/>
<path d="M255.5,424.23s4.71,3,12,.43l-3.86-6Z" opacity="0.2"/>
<path d="M248.21,324.39H177.94s-2.57-83.56,41.56-82.28C219.5,242.11,270.93,240,248.21,324.39Z" fill="#0071f2" data-primary="true"/>
<path d="M248.21,324.39H177.94s-2.57-83.56,41.56-82.28C219.5,242.11,270.93,240,248.21,324.39Z" opacity="0.2"/>
<path d="M285.17,408.16c-10,3.54-21.53,10.5-21.53,10.5s23.78,52.49,74.56,45.42c0,0,44.35,8.36,85.49-74.56,0,0,37.28-79.06,54-64.27,0,0,36.64,32.13,68.14,65.56l25.45,25.25a5.54,5.54,0,0,0,5.49,1.38c8.18-2.4,28.93-11.27,32.36-40.19a5.62,5.62,0,0,0-2.35-5.32C600,367.25,580.56,352.07,549,314.1c0,0-50.56-59.56-75-58.27,0,0-14.35-5.15-65.78,31.49,0,0-41.78,58.49-75.2,70.71C333.06,358,332.1,388.56,285.17,408.16Z" fill="#2f2e41" data-secondary="true"/>
<path d="M531,535.22l-1.28,16.71s-.86,12.86,12.85,13.28c0,0,17.45.87,26.09,5,2.9,1.39,5.76,2.84,8.78,4,11.59,4.27,36.06,12,45.48,5.26,0,0,9.32-7.71-9-15.1,0,0-35-14.14-46.92-28.29C567,536.07,547.75,545.93,531,535.22Z" fill="#ebebeb"/>
<path d="M634.24,421.18s0-.1,0-.15a64.22,64.22,0,0,0-2-12.56c-2.42-9.29-1.77-20.42-1.77-20.42l-19.39,8.08s-3.77,17-16.7,25.32c0,0,5.39,24,21.82,14.27C616.2,435.72,621.59,434.11,634.24,421.18Z" fill="#ebebeb"/>
<path d="M630.47,388.05s22.36-8.88,35.29-18.85c0,0,10.27-8.73,15.65-3.35l-14,27.79A45.58,45.58,0,0,1,661,403.72c-1.74,1.95-4,3.85-6.11,5.94a25.55,25.55,0,0,0-4.52,5.78l-15.13,27.44s.09-14.47-1-21.85a67.89,67.89,0,0,0-2-12.56S630.47,401.52,630.47,388.05Z" fill="#0071f2" data-primary="true"/>
<path d="M653.1,433.3l-4-1.62s-2.43,0,3.77-9.69l.45-.53a162.14,162.14,0,0,0,20.42-30.35L686,367.34a2.41,2.41,0,0,0-.8-3.11h0a2.42,2.42,0,0,0-3.48.91l-16,31.26a56.14,56.14,0,0,1-10.89,13.26,30.73,30.73,0,0,0-6.35,9.1l-20.15,36.37a1.2,1.2,0,0,0,.49,1.63l6.65,3.5a2.85,2.85,0,0,0,3.84-1.18Z" fill="#2f2e41" data-secondary="true"/>
<path d="M713.17,569.4s18,16,32.68,23.08c0,0,12.88,5.24,10,12.88l-31.08-.48a43.37,43.37,0,0,1-11.56-1.45c-2.52-.67-4.81-.73-8.36-2.19a22.26,22.26,0,0,0-7.2-1.78l-31.06-1.27s12.72-6.36,18.84-10.63a67.86,67.86,0,0,0,10.33-7.42S701.14,575.45,713.17,569.4Z" fill="#0071f2" data-primary="true"/>
<path d="M682.88,609.92l-.36-4.33s-1.09-2.17,10.35-1l.68.16a162,162,0,0,0,36.29,4.64l26.77.36a2.4,2.4,0,0,0,2.42-2.11h0a2.4,2.4,0,0,0-2.37-2.7l-35.12-.28a55.85,55.85,0,0,1-16.73-3.78,30.89,30.89,0,0,0-11-1.59l-41.55-1.69a1.2,1.2,0,0,0-1.24,1.17l-.14,7.51a2.85,2.85,0,0,0,2.78,2.9Z" fill="#2f2e41" data-secondary="true"/>
<path d="M249.35,485.71l-13.6,93.88a5.41,5.41,0,0,0,4.65,6.14h0a5.41,5.41,0,0,0,6-4.54L260,492.67Z" fill="#a7a9ac"/>
<path d="M272.43,199.26S267,218.59,259,226.32a4.89,4.89,0,0,0-1.37,4.49c1.29,6.46,5.94,21.6,21.59,25.43a19.93,19.93,0,0,0,18.22-4.19c4.55-4.14,7.72-11.16.55-22.26a14,14,0,0,1-.56-7.93S283.74,221.82,272.43,199.26Z" fill="#f9b499"/>
<polygon points="357.91 254.97 293.64 340.24 352.77 368.53 433.33 287.96 357.91 254.97" fill="#d1d3d4"/>
<polygon points="369.91 260.54 377.2 251.97 433.33 287.96 369.91 260.54" fill="#e6e7e8"/>
<path d="M406.76,246.83l26.41,40.89s0,.12-.09.08l-43-27.69Z" fill="#d1d3d4"/>
<path d="M450.47,452.51,275.21,494.08s14.14-64.71,70.28-91.7C345.49,402.38,432.9,356.74,450.47,452.51Z" fill="#d1d3d4"/>
<path d="M290.42,501.06c-28.76,7.5-44.18-20.42-44.18-20.42l-70-95.87-30.35,195a5.53,5.53,0,0,1-6.71,4.54h0a5.53,5.53,0,0,1-4.22-6.27L168.5,368.74a3.81,3.81,0,0,1,3.13-3.14h0a3.8,3.8,0,0,1,3.69,1.51L259,479.31a2.38,2.38,0,0,0,2.58.86l114.3-33.4a2.55,2.55,0,0,0,1.73-3.2l-9.81-32.4a45.71,45.71,0,0,0-19-25.67c-5.1-3.2-11.11-5.48-17.53-4.89l-88.65-.78a5.81,5.81,0,0,1-5.75-6h0a5.82,5.82,0,0,1,5.92-5.6l92.23,2s30.85-.84,42.1,35.84L430,580a5.81,5.81,0,0,1-4,7.29h0a5.82,5.82,0,0,1-6.81-3.08L369.61,481.05Z" fill="#a7a9ac"/>
<path d="M183.51,324.39s-9,48,16.71,50.13c0,0,87.58,4.57,146.32-26.33a6,6,0,0,1,5.35-.15c3.52,1.66,9.87,3.79,13.74-.08,0,0,5.92.37,8.82-6.11a2.06,2.06,0,0,1,2.3-1.15c2.89.54,8.61.49,9.87-7.74,0,0,9,3,9-6.86l-3.42,3s-32.57-7.28-28.29-14.14c0,0,10.69-11.08,9.24-17.65a1,1,0,0,0-1.12-.74c-1.89.27-6.7,1.92-13.26,11.11,0,0-18.85,23.57-47.14,24.85,0,0-24.42,5.57-76.7-4.28l.86-3.43Z" fill="#f9b499"/>
<path d="M297.72,221.4s-.86,1.9-.35,5.86c0,0-16.06-4.16-20.77-21.16Z" fill="#f7a48b"/>
<ellipse cx="298.77" cy="184.82" rx="28.92" ry="37.56" fill="#f9b499"/>
<path d="M270.07,186.19s-.86,4.93,2.78,15.64c0,0-10.71-12.85-18.21-18.64,0,0-14.81-10.34-.21-22a1.46,1.46,0,0,0,.2-2.12c-2.64-3.05-8.42-11.49,1.85-17.7a.85.85,0,0,0,.33-1.13c-1.53-2.78-6.36-13.08,2.12-18.79,0,0,7.78-3.8,18.71,3.62a2.7,2.7,0,0,0,3.58-.51c3.85-4.73,14.59-15.4,27-5.66a1.84,1.84,0,0,0,2.1.08c2.25-1.42,7.63-4,12.14,0a2,2,0,0,0,2.2.18c3.26-1.76,11.91-5.52,16.72,1.18,0,0,6.31,5.25-2.12,17.44a.23.23,0,0,0,.15.37c2.15.23,12.47,1.84,12.47,12.4,0,0-1.07,24-29.94,20.79h-.12c-.65,0-6.74-.52-24.15-12.12a11.73,11.73,0,0,0-8.24-2A9.66,9.66,0,0,0,282,163c-1.43,3-5.09,7.32-8.36,7.58-1.88.15-2.29-.57-4.6.45Z" fill="#2f2e41" data-secondary="true"/>
<ellipse cx="272.01" cy="178.34" rx="6.49" ry="8.38" fill="#f9b499"/>
</svg>