<svg width="150" height="191" viewBox="0 0 150 191" fill="none" xmlns="http://www.w3.org/2000/svg">
<path d="M67.23 36.78C66.81 30.22 66.16 23.28 65.23 16.01C64.48 10.63 63.65 5.46 62.78 0.54L73.06 0.27L83.39 0C82.78 5 82.17 10.17 81.78 15.58C81.19 22.89 80.9 29.86 80.83 36.43C77.89 36.56 74.89 36.67 71.83 36.73L67.23 36.78Z" fill="#1A3564"/>
<path d="M88.0601 189.66L78.0601 189.92H77.1201L67.0701 190.18C67.4701 176.7 67.7834 163.087 68.0101 149.34C68.4701 122.367 68.5734 95.87 68.3201 69.85C72.3201 69.6834 76.4167 69.5767 80.61 69.53C81.73 95.53 83.2067 121.983 85.0401 148.89C85.9467 162.623 86.9534 176.213 88.0601 189.66Z" fill="#1A3564"/>
<path d="M144.56 41.1C141.489 37.3089 137.46 34.4086 132.89 32.7C128.205 30.8703 123.219 29.9342 118.19 29.94C112.521 29.8028 106.88 30.7849 101.59 32.83C96.5767 34.9914 91.8343 37.7334 87.46 41L74.56 50.36L61.66 41C57.279 37.7492 52.5335 35.0208 47.52 32.87C42.2304 30.8249 36.5895 29.8428 30.92 29.98C25.8907 29.9742 20.9047 30.9103 16.22 32.74C11.6516 34.4512 7.62288 37.351 4.55003 41.14C1.52336 44.9 0.00668998 49.71 2.331e-05 55.57C-0.00664336 61.43 1.41669 66.22 4.27003 69.94C7.12705 73.7617 11.0062 76.6979 15.46 78.41C20.1386 80.2611 25.1287 81.198 30.16 81.17C35.3249 81.2784 40.4671 80.4553 45.34 78.74C49.6529 77.1123 53.7343 74.927 57.48 72.24L74.56 59.77L91.63 72.2C95.3351 74.8533 99.3687 77.0147 103.63 78.63C108.526 80.3841 113.7 81.2313 118.9 81.13C123.992 81.186 129.047 80.2485 133.78 78.37C138.196 76.6343 142.04 73.701 144.88 69.9C147.72 66.1 149.14 61.31 149.14 55.53C149.14 49.75 147.613 44.94 144.56 41.1ZM51.78 66.82C49.0248 68.8921 46.034 70.6309 42.87 72C39.3956 73.485 35.6481 74.2243 31.87 74.17C28.2973 74.178 24.7564 73.499 21.44 72.17C18.2448 70.9437 15.4683 68.8267 13.44 66.07C11.3227 62.9641 10.27 59.2551 10.44 55.5C10.305 51.719 11.4854 48.0081 13.78 45C15.9484 42.275 18.7977 40.1707 22.04 38.9C25.0419 37.6296 28.2608 36.9505 31.52 36.9C34.6348 36.8761 37.7357 37.3177 40.72 38.21C43.4047 39.0185 46.0091 40.0729 48.5 41.36C50.452 42.3503 52.3242 43.4904 54.1 44.77L68.1 55.01L51.78 66.82ZM135.63 66.1C133.601 68.8559 130.825 70.9727 127.63 72.2C124.31 73.5272 120.766 74.2061 117.19 74.2C113.489 74.2273 109.823 73.4778 106.43 72C103.217 70.6033 100.163 68.8667 97.32 66.82L81.03 55L95.03 44.76C96.8007 43.4779 98.6698 42.3377 100.62 41.35C103.138 40.0529 105.773 38.9981 108.49 38.2C111.447 37.3218 114.516 36.8804 117.6 36.89C120.894 36.9221 124.149 37.6017 127.18 38.89C130.384 40.1792 133.197 42.2817 135.34 44.99C137.641 48.0169 138.815 51.751 138.66 55.55C138.82 59.3006 137.76 63.0021 135.64 66.1H135.63Z" fill="#CBAC5A"/>
</svg>
