<svg width="142" height="127" viewBox="0 0 142 127" fill="none" xmlns="http://www.w3.org/2000/svg">
<path d="M52.3678 1.75264C35.5678 6.41931 17.0344 21.2193 8.90111 36.5526C2.36777 49.086 0.101107 58.686 -0.0322266 74.5526C-0.0322266 90.9526 1.70111 99.7526 8.10111 112.819C14.9011 126.953 15.3011 127.086 30.7678 126.153C37.9678 125.619 45.3011 124.953 47.1678 124.553C49.0344 124.153 52.6344 123.486 55.1678 123.086C65.4344 121.353 64.5011 124.686 64.5011 88.4193V55.886H46.5011H28.5011L31.1678 50.5526L33.8344 45.2193H49.1678H64.5011V26.5526V7.88597L70.5011 14.1526C75.0344 18.8193 76.5011 21.3526 76.5011 24.5526C76.5011 26.9526 76.9011 32.5526 77.3011 37.086L78.2344 45.2193H95.4344C110.768 45.2193 112.634 45.486 111.968 47.3526C111.568 48.5526 110.768 50.9526 110.368 52.686C109.568 55.886 109.301 55.886 93.5678 55.886H77.5678L78.3678 62.8193C78.7678 66.686 79.4344 80.8193 79.9678 94.286L80.9011 118.686L87.0344 117.753C95.0344 116.419 119.834 116.419 125.968 117.619L130.768 118.553L134.901 109.619C140.101 98.0193 141.834 89.2193 141.834 74.8193C141.834 47.3526 130.768 25.886 109.168 10.686C98.1011 2.95264 87.3011 -0.114028 71.3011 0.0193049C64.2344 0.0193049 55.7011 0.819305 52.3678 1.75264Z" fill="#1A3467"/>
</svg>
