<svg width="523" height="127" viewBox="0 0 523 127" fill="none" xmlns="http://www.w3.org/2000/svg">
<path d="M52.3678 1.75255C35.5678 6.41921 17.0344 21.2192 8.90111 36.5525C2.36777 49.0859 0.101107 58.6859 -0.0322266 74.5526C-0.0322266 90.9526 1.70111 99.7526 8.10111 112.819C14.9011 126.953 15.3011 127.086 30.7678 126.153C37.9678 125.619 45.3011 124.953 47.1678 124.553C49.0344 124.153 52.6344 123.486 55.1678 123.086C65.4344 121.353 64.5011 124.686 64.5011 88.4192V55.8859H46.5011H28.5011L31.1678 50.5525L33.8344 45.2192H49.1678H64.5011V26.5525V7.88588L70.5011 14.1525C75.0344 18.8192 76.5011 21.3525 76.5011 24.5525C76.5011 26.9525 76.9011 32.5525 77.3011 37.0859L78.2344 45.2192H95.4344C110.768 45.2192 112.634 45.4859 111.968 47.3525C111.568 48.5525 110.768 50.9525 110.368 52.6859C109.568 55.8859 109.301 55.8859 93.5678 55.8859H77.5678L78.3678 62.8192C78.7678 66.6859 79.4344 80.8192 79.9678 94.2859L80.9011 118.686L87.0344 117.753C95.0344 116.419 119.834 116.419 125.968 117.619L130.768 118.553L134.901 109.619C140.101 98.0192 141.834 89.2192 141.834 74.8192C141.834 47.3525 130.768 25.8859 109.168 10.6859C98.1011 2.95255 87.3011 -0.11412 71.3011 0.0192134C64.2344 0.0192134 55.7011 0.819213 52.3678 1.75255Z" fill="#1A3467"/>
<path d="M166.634 50.6859C163.968 52.8192 163.168 54.5526 163.168 58.4192C163.168 63.8859 165.034 66.0192 174.768 72.2859C181.434 76.5526 183.301 81.3526 179.834 85.2192C175.968 89.4859 165.834 87.8859 165.834 83.2192C165.834 82.1526 165.034 81.2192 164.101 81.2192C163.034 81.2192 162.368 82.8192 162.501 85.4859L162.634 89.8859L171.301 90.2859C178.501 90.5526 180.634 90.1526 183.701 87.7526C186.768 85.3526 187.301 84.1526 186.901 78.8192C186.501 72.9526 186.101 72.4192 178.634 67.2192C169.301 60.9526 167.301 58.1526 169.301 54.9526C172.634 49.4859 180.768 49.3526 182.501 54.5526C183.701 58.5526 185.834 57.7526 185.834 53.3526C185.834 48.9526 183.968 47.8859 175.968 47.8859C172.101 47.8859 169.034 48.8192 166.634 50.6859Z" fill="#1A3467"/>
<path d="M494.368 50.0192C482.234 56.0192 481.301 80.8192 493.034 88.0192C497.834 90.9525 508.768 91.3525 513.834 88.8192C515.701 88.0192 518.501 84.5525 520.234 81.2192C525.968 70.1525 522.234 54.2859 513.034 49.8859C507.568 47.3525 499.701 47.3525 494.368 50.0192ZM509.568 52.6859C513.968 55.7525 516.501 61.6192 516.501 69.0859C516.501 81.0859 511.834 87.8859 503.834 87.8859C495.834 87.8859 491.168 81.0859 491.168 69.0859C491.168 58.8192 496.768 50.5525 503.834 50.5525C505.301 50.5525 507.968 51.4859 509.568 52.6859Z" fill="#1A3467"/>
<path d="M193.834 50.5525C193.834 51.2192 194.768 51.8859 195.834 51.8859C197.568 51.8859 197.834 54.8192 197.834 69.8859C197.834 84.9526 197.568 87.8859 195.834 87.8859C194.768 87.8859 193.834 88.4192 193.834 89.2192C193.834 90.0192 199.434 90.5526 207.834 90.5526H221.834V86.5526C221.834 84.2859 221.301 82.5526 220.501 82.5526C219.834 82.5526 219.168 83.4859 219.168 84.5526C219.168 86.1526 217.434 86.5526 211.168 86.5526H203.168V78.5526V70.5526H208.501C211.434 70.5526 213.834 71.0859 213.834 71.8859C213.834 72.5526 214.501 73.2192 215.168 73.2192C215.968 73.2192 216.501 71.0859 216.501 68.5526C216.501 63.7525 214.768 62.2859 213.301 65.8859C212.901 67.0859 210.768 67.8859 207.834 67.8859H203.168V59.8859V51.8859H210.501C216.101 51.8859 217.834 52.2859 217.834 53.8859C217.834 54.9525 218.501 55.8859 219.168 55.8859C219.968 55.8859 220.501 54.4192 220.501 52.5525V49.2192H207.168C199.168 49.2192 193.834 49.7525 193.834 50.5525Z" fill="#1A3467"/>
<path d="M225.834 50.5525C225.834 51.2192 227.034 51.8859 228.368 51.8859C230.768 51.8859 231.034 52.9525 230.901 69.3526C230.768 85.2192 230.501 86.9526 228.368 87.4859C223.968 88.6859 227.168 90.5526 233.301 90.5526C239.301 90.5526 241.301 88.6859 236.501 87.4859C234.101 86.8192 233.968 85.6192 233.968 72.5526C233.968 64.5525 234.501 58.6859 235.034 59.3525C235.701 60.0192 238.368 66.4192 241.168 73.4859C243.968 80.8192 246.901 86.5526 247.834 86.5526C248.901 86.5526 251.834 80.6859 254.634 73.2192C257.434 65.8859 260.101 59.8859 260.501 59.8859C260.901 59.8859 261.168 66.0192 261.168 73.4859C261.168 85.4859 260.901 87.2192 258.901 87.6192C253.701 88.6859 256.901 90.5526 263.834 90.5526C267.834 90.5526 271.168 89.8859 271.168 89.2192C271.168 88.4192 270.234 87.8859 269.168 87.8859C267.434 87.8859 267.168 84.9526 267.168 69.8859C267.168 54.8192 267.434 51.8859 269.168 51.8859C270.234 51.8859 271.168 51.2192 271.168 50.5525C271.168 49.7525 268.768 49.2192 265.968 49.2192H260.768L255.168 63.3525C251.968 71.0859 249.034 76.9526 248.501 76.2859C247.968 75.7526 245.301 69.3526 242.501 62.1525L237.568 49.2192H231.701C228.501 49.2192 225.834 49.7525 225.834 50.5525Z" fill="#1A3467"/>
<path d="M276.501 50.5525C276.501 51.2192 277.434 51.8859 278.501 51.8859C280.234 51.8859 280.501 54.8192 280.501 69.8859C280.501 84.9526 280.234 87.8859 278.501 87.8859C277.434 87.8859 276.501 88.4192 276.501 89.2192C276.501 89.8859 279.568 90.5526 283.168 90.5526C289.568 90.5526 291.968 88.9526 287.834 87.3526C286.368 86.8192 285.834 84.6859 285.834 80.1526V73.6192L291.168 72.8192C301.301 71.4859 306.901 65.0859 305.168 56.9525C303.834 50.9525 299.968 49.2192 287.568 49.2192C281.034 49.2192 276.501 49.7525 276.501 50.5525ZM297.034 54.0192C302.101 58.9525 297.834 69.0859 290.501 69.6192L286.501 69.8859L286.101 60.8192L285.701 51.8859H290.368C292.901 51.8859 295.968 52.8192 297.034 54.0192Z" fill="#1A3467"/>
<path d="M309.834 50.5525C309.834 51.2192 310.768 51.8859 311.834 51.8859C313.568 51.8859 313.834 54.8192 313.834 69.8859C313.834 84.9526 313.568 87.8859 311.834 87.8859C310.768 87.8859 309.834 88.4192 309.834 89.2192C309.834 89.8859 312.901 90.5526 316.501 90.5526C322.901 90.5526 325.301 88.9526 321.168 87.3526C319.568 86.8192 319.168 83.4859 319.168 69.2192C319.168 54.6859 319.434 51.8859 321.168 51.8859C322.234 51.8859 323.168 51.2192 323.168 50.5525C323.168 49.7525 320.234 49.2192 316.501 49.2192C312.901 49.2192 309.834 49.7525 309.834 50.5525Z" fill="#1A3467"/>
<path d="M328.501 53.2192C328.501 55.3525 329.168 57.2192 329.834 57.2192C330.634 57.2192 331.168 56.0192 331.168 54.5525C331.168 52.2859 332.101 51.8859 337.168 51.8859H343.168V69.8859C343.168 84.9526 342.901 87.8859 341.168 87.8859C340.101 87.8859 339.168 88.4192 339.168 89.2192C339.168 89.8859 342.501 90.5526 346.501 90.5526C350.501 90.5526 353.834 89.8859 353.834 89.2192C353.834 88.4192 352.901 87.8859 351.834 87.8859C350.101 87.8859 349.834 84.9526 349.834 69.7526V51.7525L355.568 52.1525C359.301 52.4192 361.168 53.2192 361.168 54.4192C361.168 55.4859 361.968 56.5525 362.901 56.8192C363.968 57.2192 364.501 56.0192 364.501 53.3525V49.2192H346.501H328.501V53.2192Z" fill="#1A3467"/>
<path d="M368.501 50.5525C368.501 51.2192 369.434 51.8859 370.501 51.8859C372.234 51.8859 372.501 54.8192 372.501 69.8859C372.501 84.9526 372.234 87.8859 370.501 87.8859C369.434 87.8859 368.501 88.4192 368.501 89.2192C368.501 90.0192 373.968 90.5526 382.368 90.5526H396.234L396.768 86.5526C397.168 83.8859 396.768 82.5526 395.568 82.5526C394.634 82.5526 393.834 83.4859 393.834 84.5526C393.834 86.1526 392.101 86.5526 386.501 86.5526H379.168V78.5526V70.5526H383.834C386.368 70.5526 388.501 71.0859 388.501 71.8859C388.501 72.5526 389.168 73.2192 389.834 73.2192C390.634 73.2192 391.168 71.0859 391.168 68.5526C391.168 66.0192 390.634 63.8859 389.834 63.8859C389.168 63.8859 388.501 64.8192 388.501 65.8859C388.501 67.2192 387.034 67.8859 383.834 67.8859H379.168V59.8859V51.8859H385.834C390.901 51.8859 392.501 52.4192 392.501 53.8859C392.501 54.9525 393.434 55.8859 394.501 55.8859C395.701 55.8859 396.501 54.6859 396.501 52.5525V49.2192H382.501C374.101 49.2192 368.501 49.7525 368.501 50.5525Z" fill="#1A3467"/>
<path d="M401.834 50.5525C401.834 51.2192 402.768 51.8859 403.834 51.8859C405.568 51.8859 405.834 54.8192 405.834 69.8859C405.834 84.9526 405.568 87.8859 403.834 87.8859C402.768 87.8859 401.834 88.4192 401.834 89.2192C401.834 89.8859 404.901 90.5526 408.501 90.5526C415.034 90.5526 417.301 88.9526 413.034 87.3526C411.568 86.8192 411.168 84.9526 411.434 79.6192C411.968 69.4859 414.634 69.8859 421.568 81.2192C426.634 89.3526 427.834 90.5526 431.301 90.5526C434.901 90.5526 436.634 88.6859 434.101 87.6192C433.434 87.3526 430.501 83.6192 427.568 79.2192L422.234 71.2192L426.101 68.1526C429.168 65.6192 429.834 64.0192 429.834 59.2192C429.834 50.9525 426.901 49.2192 412.901 49.2192C406.368 49.2192 401.834 49.7525 401.834 50.5525ZM421.568 54.0192C423.301 55.2192 424.501 57.4859 424.501 59.3525C424.501 63.6192 418.901 69.2192 414.501 69.2192C411.301 69.2192 411.168 68.9526 411.168 60.5525C411.168 52.0192 411.168 51.8859 414.901 51.8859C416.901 51.8859 419.968 52.8192 421.568 54.0192Z" fill="#1A3467"/>
<path d="M440.501 50.5525C440.501 51.2192 441.434 51.8859 442.501 51.8859C444.234 51.8859 444.501 54.8192 444.501 69.8859C444.501 84.9526 444.234 87.8859 442.501 87.8859C441.434 87.8859 440.501 88.4192 440.501 89.2192C440.501 89.8859 443.168 90.5526 446.501 90.5526C452.901 90.5526 453.834 89.7526 450.501 87.3526C448.768 86.1526 448.501 83.2192 448.768 72.4192L449.168 58.8192L459.168 74.6859C467.034 87.0859 469.834 90.4192 472.234 90.5526C475.168 90.5526 475.168 90.4192 475.168 71.2192C475.168 54.9525 475.434 51.8859 477.168 51.8859C478.234 51.8859 479.168 51.2192 479.168 50.5525C479.168 49.7525 476.501 49.2192 473.168 49.2192C469.834 49.2192 467.168 49.7525 467.168 50.5525C467.168 51.2192 468.101 51.8859 469.168 51.8859C470.768 51.8859 471.168 54.2859 471.168 65.8859C471.168 73.6192 470.768 79.8859 470.234 79.7526C469.568 79.7526 464.768 72.8192 459.301 64.4192C449.968 50.0192 449.301 49.2192 445.034 49.2192C442.501 49.2192 440.501 49.7525 440.501 50.5525Z" fill="#1A3467"/>
</svg>
