<svg width="496" height="191" viewBox="0 0 496 191" fill="none" xmlns="http://www.w3.org/2000/svg">
<path d="M39.57 124.19C37.4494 122.988 35.1936 122.041 32.85 121.37C30.4 120.65 27.92 120 25.44 119.37C22.96 118.74 20.7 118.2 18.69 117.59C16.8994 117.102 15.2327 116.24 13.8 115.06C13.1871 114.537 12.7005 113.882 12.3767 113.144C12.0528 112.407 11.9001 111.605 11.93 110.8C11.9044 109.36 12.3582 107.953 13.22 106.8C14.278 105.493 15.6863 104.515 17.28 103.98C19.6174 103.217 22.0739 102.885 24.53 103C27.2176 103.024 29.8904 103.4 32.48 104.12C35.2892 104.902 37.9801 106.059 40.48 107.56L43.88 99.19C41.1076 97.4382 38.0675 96.1512 34.88 95.38C31.5277 94.4928 28.0775 94.0292 24.61 94C19.2767 94 14.9 94.7867 11.48 96.36C8.3507 97.6584 5.67032 99.8451 3.77 102.65C2.09648 105.226 1.21672 108.238 1.24 111.31C1.11941 114.004 1.78289 116.675 3.15 119C4.39181 120.956 6.08183 122.588 8.08 123.76C10.191 124.995 12.4442 125.969 14.79 126.66C17.25 127.413 19.71 128.08 22.17 128.66C24.62 129.21 26.86 129.81 28.88 130.44C30.677 130.962 32.3526 131.836 33.81 133.01C34.4308 133.53 34.9247 134.185 35.254 134.925C35.5833 135.665 35.7392 136.471 35.71 137.28C35.7229 138.676 35.2571 140.035 34.39 141.13C33.2904 142.403 31.8509 143.336 30.24 143.82C27.8553 144.558 25.365 144.896 22.87 144.82C19.2841 144.821 15.7249 144.202 12.35 142.99C9.24827 141.952 6.33667 140.416 3.73 138.44L0 146.72C2.92671 149.018 6.27707 150.717 9.86 151.72C14.0685 153.03 18.4526 153.687 22.86 153.67C27.3567 153.821 31.8346 153.021 36 151.32C39.1642 150.029 41.8749 147.83 43.79 145C45.455 142.449 46.3347 139.466 46.32 136.42C46.4234 133.782 45.7786 131.168 44.46 128.88C43.2418 126.937 41.5619 125.326 39.57 124.19Z" fill="#1A3467"/>
<path d="M86.7601 110.93C83.2286 109.009 79.2594 108.038 75.2401 108.11C71.1195 108.034 67.05 109.03 63.4301 111C60.0426 112.874 57.234 115.641 55.3101 119C53.3031 122.575 52.288 126.621 52.3701 130.72C52.2954 134.816 53.3322 138.856 55.3701 142.41C57.4043 145.847 60.3634 148.643 63.9101 150.48C67.8907 152.521 72.318 153.535 76.7901 153.43C80.3199 153.495 83.8275 152.859 87.1101 151.56C90.001 150.405 92.5729 148.574 94.6101 146.22L89.0601 139.84C87.5886 141.44 85.7729 142.684 83.7501 143.48C81.6061 144.284 79.3297 144.678 77.0401 144.64C74.4137 144.692 71.8113 144.131 69.4401 143C67.3004 141.961 65.513 140.316 64.3001 138.27C63.525 136.97 62.993 135.54 62.7301 134.05H97.4401C97.5001 133.55 97.5401 133.05 97.5701 132.47C97.6001 131.89 97.5701 131.42 97.5701 130.98C97.6713 126.763 96.6718 122.593 94.6701 118.88C92.8253 115.545 90.0857 112.792 86.7601 110.93ZM64.0901 122.65C65.1291 120.732 66.6799 119.139 68.5701 118.05C70.6119 116.966 72.8884 116.399 75.2001 116.399C77.5118 116.399 79.7882 116.966 81.8301 118.05C83.7135 119.14 85.2707 120.715 86.3401 122.61C87.1316 124.016 87.6316 125.567 87.8101 127.17H62.6401C62.8508 125.589 63.3418 124.058 64.0901 122.65Z" fill="#1A3467"/>
<path d="M172.81 110.18C169.881 108.757 166.656 108.047 163.4 108.11C159.358 108.035 155.373 109.073 151.88 111.11C149.953 112.256 148.258 113.751 146.88 115.52C145.843 113.793 144.436 112.317 142.76 111.2C139.546 109.108 135.774 108.038 131.94 108.13C128.562 108.07 125.221 108.839 122.21 110.37C120.37 111.325 118.746 112.649 117.44 114.26V108.63H107.58V152.88H117.94V130.4C117.846 127.864 118.343 125.341 119.39 123.03C120.27 121.188 121.685 119.655 123.45 118.63C125.284 117.615 127.354 117.101 129.45 117.14C132.65 117.14 135.107 118.107 136.82 120.04C138.54 121.98 139.39 124.9 139.39 128.83V152.83H149.75V130.4C149.656 127.864 150.153 125.341 151.2 123.03C152.08 121.188 153.495 119.655 155.26 118.63C157.094 117.615 159.164 117.101 161.26 117.14C164.46 117.14 166.917 118.107 168.63 120.04C170.34 121.98 171.2 124.9 171.2 128.83V152.83H181.56V127.5C181.709 123.698 180.911 119.918 179.24 116.5C177.802 113.779 175.556 111.57 172.81 110.18Z" fill="#1A3467"/>
<path d="M230.89 110.93C227.348 108.999 223.363 108.027 219.33 108.11C215.841 108.051 212.397 108.895 209.33 110.56C207.546 111.544 205.97 112.865 204.69 114.45V108.61H194.83V168.93H205.18V147.42C206.421 148.833 207.892 150.027 209.53 150.95C212.531 152.621 215.916 153.479 219.35 153.44C223.383 153.523 227.368 152.551 230.91 150.62C234.249 148.763 237.016 146.028 238.91 142.71C240.94 139.043 241.955 134.9 241.85 130.71C241.954 126.542 240.939 122.422 238.91 118.78C236.998 115.484 234.226 112.771 230.89 110.93ZM229.52 138.11C228.448 140.122 226.824 141.787 224.84 142.91C222.801 144.039 220.501 144.612 218.17 144.57C215.827 144.607 213.515 144.035 211.46 142.91C209.458 141.797 207.82 140.13 206.74 138.11C205.595 135.813 205 133.281 205 130.715C205 128.149 205.595 125.617 206.74 123.32C207.832 121.317 209.468 119.663 211.46 118.55C213.517 117.43 215.828 116.858 218.17 116.89C220.5 116.854 222.799 117.426 224.84 118.55C226.814 119.673 228.434 121.325 229.52 123.32C230.665 125.617 231.261 128.149 231.261 130.715C231.261 133.281 230.665 135.813 229.52 138.11Z" fill="#1A3467"/>
<path d="M262.01 108.61H251.65V152.86H262.01V108.61Z" fill="#1A3467"/>
<path d="M256.87 88.89C255.997 88.8572 255.126 88.9976 254.307 89.3031C253.488 89.6086 252.738 90.0732 252.1 90.67C251.512 91.2439 251.044 91.9297 250.725 92.6871C250.405 93.4445 250.241 94.2581 250.241 95.08C250.241 95.9019 250.405 96.7156 250.725 97.4729C251.044 98.2303 251.512 98.9161 252.1 99.49C252.731 100.1 253.479 100.576 254.299 100.891C255.118 101.205 255.993 101.351 256.87 101.32C257.756 101.36 258.641 101.214 259.468 100.892C260.294 100.57 261.044 100.079 261.67 99.45C262.27 98.8466 262.741 98.1279 263.056 97.3373C263.37 96.5467 263.521 95.7006 263.5 94.85C263.519 94.0464 263.361 93.2485 263.038 92.5125C262.715 91.7765 262.234 91.1203 261.63 90.59C260.323 89.4292 258.617 88.8199 256.87 88.89Z" fill="#1A3467"/>
<path d="M340 110.93C336.469 109.009 332.499 108.038 328.48 108.11C324.359 108.037 320.289 109.037 316.67 111.01C313.283 112.884 310.474 115.651 308.55 119.01C306.543 122.585 305.528 126.631 305.61 130.73C305.535 134.826 306.572 138.866 308.61 142.42C310.647 145.855 313.606 148.65 317.15 150.49C320.743 152.23 324.652 153.223 328.639 153.408C332.627 153.594 336.611 152.969 340.35 151.57C343.241 150.415 345.813 148.584 347.85 146.23L342.3 139.85C340.829 141.45 339.013 142.695 336.99 143.49C334.846 144.295 332.57 144.689 330.28 144.65C327.646 144.702 325.037 144.137 322.66 143C320.522 141.958 318.736 140.314 317.52 138.27C316.749 136.968 316.217 135.539 315.95 134.05H350.67C350.72 133.55 350.76 133.05 350.79 132.47C350.82 131.89 350.79 131.42 350.79 130.98C350.896 126.763 349.897 122.591 347.89 118.88C346.054 115.545 343.321 112.792 340 110.93ZM317.34 122.65C318.372 120.73 319.921 119.137 321.81 118.05C323.847 116.917 326.15 116.348 328.48 116.4C330.784 116.356 333.059 116.926 335.07 118.05C336.954 119.14 338.511 120.715 339.58 122.61C340.372 124.016 340.872 125.567 341.05 127.17H315.87C316.072 125.587 316.563 124.055 317.32 122.65H317.34Z" fill="#1A3467"/>
<path d="M370.64 115.09V108.61H360.78V152.86H371.13V131.4C371.13 126.867 372.29 123.453 374.61 121.16C376.93 118.867 380.053 117.72 383.98 117.72C384.36 117.72 384.75 117.72 385.14 117.72C385.558 117.756 385.973 117.826 386.38 117.93V108.07C382.692 107.946 379.032 108.744 375.73 110.39C373.665 111.503 371.914 113.12 370.64 115.09Z" fill="#1A3467"/>
<path d="M429.76 110.18C426.801 108.762 423.551 108.053 420.27 108.11C416.713 108.028 413.189 108.811 410 110.39C408.081 111.373 406.38 112.733 405 114.39V108.64H395.14V152.89H405.5V130.48C405.41 127.923 405.935 125.382 407.03 123.07C407.991 121.18 409.51 119.63 411.38 118.63C413.382 117.61 415.604 117.098 417.85 117.14C419.272 117.059 420.696 117.275 422.03 117.774C423.365 118.273 424.58 119.045 425.6 120.04C427.45 121.98 428.37 124.9 428.37 128.83V152.83H438.73V127.5C438.885 123.688 438.059 119.901 436.33 116.5C434.836 113.773 432.543 111.567 429.76 110.18Z" fill="#1A3467"/>
<path d="M492.48 119C490.476 115.617 487.58 112.849 484.11 111C480.346 109.018 476.143 108.021 471.89 108.1C467.676 108.025 463.512 109.023 459.79 111C456.334 112.865 453.445 115.629 451.43 119C449.417 122.573 448.36 126.604 448.36 130.705C448.36 134.806 449.417 138.837 451.43 142.41C453.443 145.801 456.33 148.588 459.79 150.48C463.501 152.491 467.67 153.508 471.89 153.43C476.149 153.512 480.358 152.497 484.11 150.48C487.588 148.609 490.483 145.817 492.48 142.41C494.467 138.822 495.51 134.787 495.51 130.685C495.51 126.583 494.467 122.548 492.48 118.96V119ZM483.37 138.14C482.314 140.164 480.687 141.833 478.69 142.94C476.605 144.072 474.262 144.643 471.89 144.6C469.56 144.64 467.26 144.068 465.22 142.94C463.236 141.817 461.612 140.152 460.54 138.14C459.395 135.843 458.799 133.311 458.799 130.745C458.799 128.179 459.395 125.647 460.54 123.35C461.626 121.355 463.246 119.703 465.22 118.58C467.297 117.489 469.609 116.92 471.955 116.92C474.301 116.92 476.612 117.489 478.69 118.58C480.677 119.686 482.302 121.343 483.37 123.35C484.489 125.655 485.07 128.183 485.07 130.745C485.07 133.307 484.489 135.835 483.37 138.14Z" fill="#1A3467"/>
<path d="M278.45 36.78C278.03 30.22 277.38 23.28 276.45 16.01C275.7 10.63 274.87 5.46 274 0.54L284.28 0.27L294.61 0C294 5 293.39 10.17 293 15.58C292.41 22.89 292.12 29.86 292.05 36.43C289.11 36.56 286.11 36.67 283.05 36.73L278.45 36.78Z" fill="#1A3564"/>
<path d="M299.28 189.66L289.28 189.92H288.34L278.29 190.18C278.69 176.7 279.003 163.087 279.23 149.34C279.69 122.367 279.793 95.87 279.54 69.85C283.54 69.6833 287.637 69.5767 291.83 69.53C292.95 95.53 294.427 121.983 296.26 148.89C297.167 162.623 298.173 176.213 299.28 189.66Z" fill="#1A3564"/>
<path d="M355.78 41.1C352.709 37.3089 348.68 34.4086 344.11 32.7C339.425 30.8704 334.439 29.9342 329.41 29.94C323.74 29.8029 318.1 30.7849 312.81 32.83C307.797 34.9914 303.054 37.7335 298.68 41L285.78 50.36L272.88 41C268.499 37.7493 263.753 35.0208 258.74 32.87C253.45 30.8249 247.809 29.8429 242.14 29.98C237.111 29.9742 232.125 30.9104 227.44 32.74C222.872 34.4512 218.843 37.351 215.77 41.14C212.743 44.9 211.227 49.71 211.22 55.57C211.213 61.43 212.637 66.22 215.49 69.94C218.347 73.7617 222.226 76.6979 226.68 78.41C231.359 80.2611 236.349 81.198 241.38 81.17C246.545 81.2784 251.687 80.4553 256.56 78.74C260.873 77.1123 264.954 74.927 268.7 72.24L285.78 59.77L302.85 72.2C306.555 74.8533 310.589 77.0147 314.85 78.63C319.746 80.3841 324.92 81.2313 330.12 81.13C335.212 81.186 340.267 80.2485 345 78.37C349.416 76.6343 353.26 73.701 356.1 69.9C358.94 66.1 360.36 61.31 360.36 55.53C360.36 49.75 358.833 44.94 355.78 41.1ZM263 66.82C260.245 68.8922 257.254 70.6309 254.09 72C250.616 73.4851 246.868 74.2243 243.09 74.17C239.517 74.178 235.976 73.499 232.66 72.17C229.465 70.9438 226.688 68.8267 224.66 66.07C222.543 62.9641 221.49 59.2551 221.66 55.5C221.525 51.719 222.705 48.0081 225 45C227.168 42.275 230.018 40.1708 233.26 38.9C236.262 37.6296 239.481 36.9505 242.74 36.9C245.855 36.8762 248.956 37.3177 251.94 38.21C254.625 39.0185 257.229 40.0729 259.72 41.36C261.672 42.3503 263.544 43.4904 265.32 44.77L279.32 55.01L263 66.82ZM346.85 66.1C344.821 68.8559 342.045 70.9728 338.85 72.2C335.53 73.5272 331.986 74.2061 328.41 74.2C324.709 74.2273 321.043 73.4778 317.65 72C314.437 70.6033 311.383 68.8667 308.54 66.82L292.25 55L306.25 44.76C308.021 43.4779 309.89 42.3377 311.84 41.35C314.358 40.0529 316.993 38.9981 319.71 38.2C322.667 37.3218 325.736 36.8804 328.82 36.89C332.114 36.9222 335.369 37.6017 338.4 38.89C341.604 40.1792 344.417 42.2817 346.56 44.99C348.861 48.0169 350.035 51.751 349.88 55.55C350.04 59.3006 348.98 63.0021 346.86 66.1H346.85Z" fill="#CBAC5A"/>
</svg>
